<?xml version="1.0" standalone="no"?>
<!DOCTYPE svg PUBLIC "-//W3C//DTD SVG 20010904//EN"
 "http://www.w3.org/TR/2001/REC-SVG-20010904/DTD/svg10.dtd">
<svg version="1.0" xmlns="http://www.w3.org/2000/svg"
 width="909.000000pt" height="538.000000pt" viewBox="0 0 909.000000 538.000000"
 preserveAspectRatio="xMidYMid meet">

<g transform="translate(0.000000,538.000000) scale(0.100000,-0.100000)"
fill="#000000" stroke="none">
<path d="M2182 4981 c-117 -40 -182 -153 -182 -316 0 -48 -34 -227 -59 -312
-25 -86 -24 -178 4 -246 7 -16 4 -18 -16 -15 -17 2 -27 13 -36 39 -10 30 -7
67 17 225 16 104 33 216 39 249 16 88 14 135 -10 211 -15 50 -32 79 -60 108
l-40 39 -85 -6 c-87 -6 -158 -31 -186 -64 -10 -12 -13 -71 -14 -252 0 -234 -8
-321 -26 -303 -5 5 -17 97 -27 205 -21 219 -33 257 -91 289 -116 62 -236 -32
-248 -194 -3 -38 -6 -68 -9 -68 -2 0 -20 7 -40 15 -55 23 -151 19 -204 -8 -68
-36 -99 -88 -106 -179 -5 -71 0 -103 35 -195 3 -9 -10 -13 -48 -13 -62 0 -192
-42 -237 -76 -49 -37 -78 -139 -70 -249 3 -45 13 -101 23 -124 16 -40 16 -46
-4 -124 -52 -205 -56 -248 -57 -542 0 -311 9 -427 69 -840 8 -55 17 -183 20
-285 3 -102 11 -223 16 -270 25 -200 40 -321 51 -410 20 -168 97 -390 228
-663 62 -128 80 -157 135 -210 72 -71 152 -118 246 -142 130 -34 381 -6 503
57 99 50 200 178 248 314 18 52 20 74 16 199 -7 169 -16 201 -112 400 -109
222 -197 319 -410 450 -167 103 -222 155 -287 275 -84 154 -113 279 -87 375
37 132 105 217 279 345 141 105 196 129 555 239 150 46 292 118 342 175 70 79
86 125 87 247 l1 106 -48 97 c-65 130 -156 229 -260 279 -154 75 -185 82 -362
81 -138 -1 -173 -4 -257 -27 -171 -45 -270 -107 -508 -316 -47 -41 -107 -97
-135 -125 -27 -28 -92 -86 -143 -129 -82 -69 -106 -103 -80 -110 8 -2 116 90
389 333 219 195 301 249 459 302 91 31 101 32 260 32 154 0 170 -2 243 -27
160 -56 252 -122 326 -233 58 -89 75 -148 76 -264 0 -98 -2 -109 -30 -158 -48
-87 -105 -130 -241 -184 -65 -25 -175 -62 -244 -82 -260 -74 -393 -143 -554
-286 -138 -124 -184 -210 -193 -361 -7 -107 17 -194 85 -317 81 -144 126 -185
379 -344 85 -53 186 -149 236 -226 79 -119 157 -287 179 -386 25 -109 26 -272
4 -350 -25 -84 -86 -175 -161 -238 -81 -69 -141 -93 -284 -115 -232 -36 -422
32 -536 191 -135 190 -283 599 -310 861 -4 33 -18 141 -31 240 -14 99 -29 275
-34 390 -5 116 -18 269 -29 340 -43 285 -60 545 -57 880 2 202 4 229 29 330
35 140 37 142 73 119 21 -14 47 -19 99 -19 84 0 138 27 206 103 70 78 101 143
103 216 1 75 -14 107 -60 130 -92 43 -237 -2 -297 -92 -13 -20 -36 -75 -52
-122 -15 -47 -31 -89 -35 -93 -29 -32 -41 188 -14 265 19 57 32 69 116 102 97
38 195 37 273 -4 53 -28 65 -30 161 -30 98 0 107 2 129 25 15 14 25 19 25 11
0 -7 -32 -43 -71 -80 -97 -93 -126 -166 -73 -186 34 -13 73 -3 107 29 42 38
56 71 66 153 5 40 17 98 26 128 33 111 4 273 -62 342 -34 35 -35 39 -35 107 1
122 53 191 143 191 86 0 104 -33 120 -218 10 -128 34 -296 43 -311 3 -4 -4
-26 -16 -49 -24 -51 -14 -72 37 -72 18 0 38 -7 45 -15 16 -19 82 -19 120 0 29
15 46 47 35 65 -7 11 -89 5 -138 -10 -25 -8 -29 -6 -38 18 -8 21 -6 40 10 87
31 89 45 261 32 410 -6 68 -8 131 -5 139 11 28 70 55 142 66 109 15 147 -10
177 -115 20 -68 17 -136 -14 -335 -48 -305 -49 -325 -25 -371 15 -29 65 -59
99 -59 8 0 58 -45 110 -99 106 -110 144 -134 208 -129 35 3 43 7 45 26 12 80
-124 194 -276 233 -46 11 -54 17 -72 54 -29 60 -25 132 14 297 19 79 39 187
44 241 12 109 39 179 93 239 27 30 47 41 99 54 186 47 304 -78 370 -393 23
-112 30 -168 30 -260 0 -171 -22 -248 -109 -383 -31 -47 -45 -85 -64 -173 -35
-154 -35 -156 -47 -386 -17 -335 -58 -450 -255 -726 -122 -169 -315 -568 -339
-698 -4 -21 -7 -77 -7 -126 0 -128 48 -254 157 -414 38 -56 55 -91 59 -125 9
-64 13 -74 28 -69 15 5 13 79 -4 121 -7 17 -40 74 -75 126 -34 52 -77 133 -95
180 -32 79 -34 93 -33 195 0 61 6 128 13 150 39 122 244 530 309 613 37 48
134 197 157 241 70 138 113 314 125 520 20 316 44 460 92 536 94 150 116 215
125 380 5 94 2 130 -21 247 -30 158 -58 252 -93 321 -28 57 -95 132 -134 153
-40 20 -171 18 -237 -5z m-1081 -436 c54 -19 69 -38 69 -86 0 -20 14 -93 30
-162 17 -69 30 -130 30 -135 0 -5 -19 0 -42 12 -37 18 -61 21 -172 21 l-130 0
-25 55 c-20 43 -26 71 -26 125 0 90 17 123 80 157 58 32 119 36 186 13z m146
-116 c26 -64 40 -190 25 -222 -9 -21 -10 -21 -17 8 -4 17 -15 64 -25 105 -29
119 -35 173 -19 168 8 -2 24 -29 36 -59z m283 -230 c0 -5 -7 -9 -15 -9 -9 0
-12 6 -9 15 6 15 24 11 24 -6z m156 -24 c-21 -16 -117 -21 -100 -6 10 10 44
18 89 19 28 1 29 1 11 -13z m-521 -24 c23 -10 26 -14 15 -21 -26 -17 -167 -12
-208 7 l-37 16 35 8 c47 10 158 4 195 -10z m-250 -113 c31 -14 50 -75 41 -131
-9 -57 -39 -108 -101 -176 -42 -45 -68 -64 -107 -77 -56 -18 -115 -15 -153 10
-29 19 -31 42 -9 94 9 20 27 68 41 107 32 88 46 109 90 136 70 43 151 59 198
37z m314 -35 c-10 -54 -48 -98 -91 -108 -24 -6 -28 -4 -28 15 0 33 15 55 71
99 28 23 53 41 54 41 1 0 -2 -21 -6 -47z m905 -4 c77 -40 132 -83 152 -120 13
-26 13 -30 0 -35 -37 -14 -189 96 -225 164 -16 31 -2 29 73 -9z"/>
<path d="M3714 4252 c-28 -18 -48 -39 -82 -88 -11 -17 -12 -14 -7 19 8 48 -1
77 -24 77 -16 0 -18 -16 -24 -172 -9 -217 -9 -372 -1 -392 7 -17 49 -22 58 -7
3 5 -1 25 -9 45 -14 32 -21 116 -11 116 3 0 20 -9 39 -20 18 -11 54 -23 79
-26 125 -17 200 77 201 256 2 134 -42 199 -141 207 -35 3 -55 -1 -78 -15z
m139 -52 c30 -35 51 -123 42 -177 -12 -69 -35 -130 -59 -152 -52 -49 -161 -32
-186 30 -7 16 -17 29 -23 29 -20 0 -1 132 28 190 40 79 77 110 130 110 36 0
48 -5 68 -30z"/>
<path d="M4914 4256 c-3 -8 -4 -133 -2 -278 2 -194 6 -269 16 -286 18 -31 38
-22 35 14 -12 145 -14 382 -4 458 10 72 10 91 -1 97 -20 13 -38 11 -44 -5z"/>
<path d="M4496 4223 c-3 -21 -6 -77 -6 -126 l0 -87 -40 26 c-66 44 -109 17
-143 -91 -37 -116 -30 -206 20 -244 36 -29 88 -27 130 5 31 23 33 24 33 5 0
-24 28 -54 41 -45 6 3 7 13 4 23 -10 25 -6 324 6 439 8 79 8 106 -1 117 -21
25 -37 17 -44 -22z m-23 -253 c29 -57 7 -190 -40 -242 -23 -25 -68 -23 -87 4
-30 42 -13 190 28 253 26 39 75 32 99 -15z"/>
<path d="M5657 4168 c-8 -23 13 -48 39 -48 22 0 25 4 22 28 -2 21 -9 28 -29
30 -16 2 -29 -2 -32 -10z"/>
<path d="M4075 4051 c-55 -23 -98 -117 -99 -216 0 -113 41 -170 124 -170 38 0
54 6 76 25 100 93 80 295 -37 355 -31 17 -36 17 -64 6z m88 -58 c41 -47 47
-201 9 -252 -42 -58 -103 -59 -133 -3 -15 27 -19 140 -6 184 20 72 93 111 130
71z"/>
<path d="M4695 4051 c-55 -23 -98 -117 -99 -216 0 -114 41 -170 126 -170 44 0
53 4 83 37 91 99 66 286 -46 343 -31 17 -36 17 -64 6z m100 -81 c29 -51 29
-186 -1 -227 -30 -40 -66 -56 -97 -42 -37 17 -52 54 -52 128 0 82 8 111 41
151 37 43 80 39 109 -10z"/>
<path d="M5104 4041 c-76 -46 -114 -222 -67 -314 16 -33 68 -67 101 -67 80 0
142 85 142 194 -1 91 -45 173 -107 197 -32 12 -33 12 -69 -10z m110 -64 c18
-24 21 -43 21 -115 0 -98 -19 -144 -65 -160 -81 -29 -133 85 -96 211 27 94 95
125 140 64z"/>
<path d="M5397 4030 c-39 -46 -61 -124 -61 -218 -1 -80 0 -85 27 -108 36 -30
94 -32 130 -4 14 11 28 20 31 20 13 0 5 -122 -9 -150 -25 -48 -96 -57 -149
-19 -23 17 -30 19 -37 8 -27 -44 117 -88 186 -57 46 21 55 53 56 210 0 79 3
161 7 182 7 38 5 42 -53 103 -68 72 -91 78 -128 33z m113 -58 c34 -75 19 -189
-30 -242 -33 -35 -53 -37 -80 -10 -42 42 -14 260 38 289 22 12 57 -6 72 -37z"/>
<path d="M5817 4032 c-41 -45 -72 -169 -61 -246 9 -68 46 -106 104 -106 72 0
140 45 140 92 0 27 -26 21 -49 -11 -24 -34 -72 -56 -104 -47 -24 6 -47 43 -47
76 0 17 5 19 44 14 102 -14 182 97 126 176 -44 61 -121 88 -153 52z m98 -47
c44 -43 23 -132 -36 -150 -32 -10 -69 20 -69 56 0 56 38 117 73 119 4 0 19
-11 32 -25z"/>
<path d="M5657 4033 c-4 -3 -7 -79 -7 -168 0 -161 5 -185 36 -185 15 0 24 327
10 348 -9 13 -29 16 -39 5z"/>
<path d="M3186 3549 c-97 -28 -148 -178 -93 -274 12 -22 53 -63 92 -92 128
-97 156 -124 153 -146 -5 -34 -45 -49 -116 -44 -53 4 -70 10 -103 37 -39 31
-69 34 -69 7 0 -51 141 -97 237 -77 69 15 103 42 103 84 0 38 -34 73 -153 160
-91 67 -117 103 -117 167 0 59 32 108 82 127 34 13 40 13 64 -2 37 -25 54 -75
57 -164 2 -70 4 -77 22 -77 19 0 20 6 18 84 -4 152 -78 239 -177 210z"/>
<path d="M3761 3551 c-9 -6 -11 -71 -9 -284 3 -247 5 -278 20 -294 29 -29 40
-5 27 62 -11 62 -7 428 6 477 5 20 3 29 -12 36 -11 6 -25 7 -32 3z"/>
<path d="M4942 3551 c-10 -6 -13 -65 -12 -275 0 -146 5 -278 10 -292 12 -31
47 -30 41 1 -9 47 -12 476 -2 509 7 29 6 39 -6 51 -17 17 -14 17 -31 6z"/>
<path d="M5544 3455 c-14 -35 24 -68 51 -45 19 16 19 25 -1 44 -20 20 -43 20
-50 1z"/>
<path d="M5375 3360 c-7 -85 -8 -90 -30 -90 -26 0 -50 -24 -40 -40 3 -5 19
-10 34 -10 l28 0 -4 -87 c-5 -96 11 -168 37 -168 13 0 14 20 11 133 l-3 132
24 0 c31 0 63 23 54 38 -4 7 -21 12 -38 12 l-31 0 5 73 c6 83 3 97 -22 97 -15
0 -19 -12 -25 -90z"/>
<path d="M4380 3320 c-19 -21 -31 -47 -36 -78 -9 -59 14 -104 76 -149 90 -65
99 -74 93 -88 -11 -32 -104 -4 -147 44 -24 26 -46 27 -46 2 0 -32 75 -84 128
-88 57 -5 115 21 120 54 3 17 -12 32 -72 73 -93 62 -110 86 -103 141 9 68 64
104 98 63 12 -15 18 -103 8 -133 -5 -19 31 -27 42 -9 5 7 9 36 9 64 0 59 -21
93 -74 118 -48 23 -64 20 -96 -14z"/>
<path d="M6323 3335 c-31 -22 -57 -96 -49 -139 8 -44 46 -89 101 -121 77 -45
95 -85 39 -85 -31 0 -93 31 -118 59 -26 28 -48 27 -44 -1 2 -14 22 -36 53 -56
43 -29 56 -33 97 -30 26 3 58 12 72 22 44 28 33 51 -49 106 -90 61 -110 87
-102 136 9 55 33 86 65 82 44 -5 63 -74 41 -147 -5 -19 31 -27 42 -9 5 7 9 36
9 64 0 59 -21 93 -74 118 -42 20 -56 20 -83 1z"/>
<path d="M3504 3315 c-45 -45 -68 -112 -68 -195 0 -116 41 -170 130 -170 48 0
107 57 124 120 44 163 -91 340 -186 245z m119 -45 c47 -56 45 -206 -4 -259
-25 -27 -62 -36 -89 -21 -67 36 -67 215 0 282 36 36 62 35 93 -2z"/>
<path d="M3923 3325 c-27 -19 -59 -102 -68 -176 -13 -108 28 -182 103 -182 78
0 168 71 134 105 -11 11 -18 7 -40 -18 -48 -57 -97 -69 -132 -34 -11 11 -20
33 -20 50 0 29 0 29 48 24 36 -4 54 -1 78 14 32 21 64 75 64 111 0 27 -57 91
-97 107 -41 17 -44 17 -70 -1z m95 -48 c31 -37 26 -103 -10 -137 -67 -63 -130
32 -78 118 15 24 27 32 49 32 16 0 33 -6 39 -13z"/>
<path d="M4675 3307 c-77 -77 -88 -263 -19 -328 34 -32 120 -34 154 -4 38 34
60 94 60 168 0 82 -15 122 -64 165 -49 43 -87 43 -131 -1z m107 -18 c30 -16
48 -70 48 -144 0 -110 -48 -180 -107 -159 -47 16 -65 53 -65 133 0 124 59 205
124 170z"/>
<path d="M5691 3305 c-54 -62 -79 -204 -47 -278 22 -53 51 -72 111 -72 62 0
88 18 116 80 22 48 25 161 5 208 -20 49 -80 97 -120 97 -26 0 -41 -8 -65 -35z
m111 -16 c30 -16 48 -70 48 -144 0 -77 -18 -127 -55 -151 -33 -22 -69 -11 -99
29 -45 60 -14 236 47 265 29 14 34 14 59 1z"/>
<path d="M5944 3327 c-2 -7 -3 -89 -2 -182 3 -164 4 -170 24 -173 20 -3 21 1
20 90 -1 106 12 154 56 204 35 39 62 43 82 12 20 -33 28 -78 35 -203 5 -96 8
-110 25 -113 17 -4 18 4 14 130 -4 156 -21 203 -83 232 -46 22 -70 14 -103
-37 l-27 -42 -3 48 c-2 33 -7 47 -18 47 -8 0 -17 -6 -20 -13z"/>
<path d="M5030 3191 c0 -77 4 -151 9 -164 24 -64 94 -86 144 -47 l26 20 6 -20
c3 -11 15 -20 26 -20 20 0 20 5 24 313 0 38 -2 42 -24 42 -24 0 -24 0 -25
-115 -1 -115 -7 -141 -44 -182 -8 -10 -25 -18 -37 -18 -42 0 -50 24 -55 179
-5 142 -6 146 -27 149 -23 3 -23 3 -23 -137z"/>
<path d="M5530 3165 c0 -156 7 -195 35 -195 12 0 15 26 17 150 1 83 2 160 2
173 1 17 -5 23 -26 25 l-28 3 0 -156z"/>
</g>
</svg>
