<?xml version="1.0" standalone="no"?>
<!DOCTYPE svg PUBLIC "-//W3C//DTD SVG 20010904//EN"
 "http://www.w3.org/TR/2001/REC-SVG-20010904/DTD/svg10.dtd">
<svg version="1.0" xmlns="http://www.w3.org/2000/svg"
 width="343.000000pt" height="63.000000pt" viewBox="0 0 343.000000 63.000000"
 preserveAspectRatio="xMidYMid meet">

<g transform="translate(0.000000,63.000000) scale(0.100000,-0.100000)"
fill="#000000" stroke="none">
<path d="M221 424 c-58 -49 -59 -123 -1 -202 34 -47 134 -130 167 -138 46 -12
202 131 224 207 33 107 -69 197 -161 142 -16 -9 -34 -27 -41 -40 -13 -24 -13
-24 -21 -4 -10 28 -66 61 -105 61 -19 0 -43 -10 -62 -26z m289 -69 c0 -20 5
-25 26 -25 31 0 28 -23 -4 -28 -14 -2 -22 -11 -22 -23 0 -10 -7 -19 -15 -19
-8 0 -15 9 -15 20 0 13 -7 20 -20 20 -11 0 -20 7 -20 15 0 8 9 15 20 15 13 0
20 7 20 18 0 10 3 22 7 25 13 14 23 6 23 -18z"/>
<path d="M1240 280 c0 -72 5 -140 10 -151 8 -13 21 -19 45 -19 31 0 35 3 35
25 0 15 -6 25 -15 25 -12 0 -15 23 -17 123 l-3 122 -27 3 -28 3 0 -131z"/>
<path d="M2087 403 c-13 -12 -7 -237 6 -263 16 -31 73 -41 84 -14 4 10 0 22
-10 29 -14 10 -17 31 -17 114 0 56 -5 111 -10 122 -10 19 -40 26 -53 12z"/>
<path d="M2584 386 c-11 -28 4 -48 33 -44 22 2 28 8 28 28 0 20 -6 26 -28 28
-18 2 -29 -2 -33 -12z"/>
<path d="M828 370 c-22 -17 -28 -30 -28 -60 0 -31 6 -43 28 -58 15 -11 37 -23
49 -26 32 -10 53 -34 47 -51 -7 -18 -53 -20 -89 -3 -22 10 -28 9 -36 -3 -15
-25 -10 -37 22 -48 91 -31 169 0 169 68 0 43 -22 68 -85 98 -22 10 -40 25 -40
33 0 19 37 25 76 11 25 -8 30 -7 40 11 16 30 -1 41 -68 46 -48 3 -63 0 -85
-18z"/>
<path d="M1685 378 c-74 -42 -57 -110 40 -155 73 -33 51 -77 -29 -55 -35 9
-43 9 -54 -6 -23 -30 9 -47 89 -47 63 0 72 3 89 25 42 54 14 113 -70 146 -28
11 -40 22 -38 33 3 12 16 16 58 16 48 0 55 3 58 21 2 15 -4 23 -20 28 -37 9
-101 6 -123 -6z"/>
<path d="M2434 340 c-4 -16 -13 -30 -20 -30 -8 0 -14 -9 -14 -20 0 -11 6 -20
14 -20 10 0 15 -18 18 -64 5 -78 18 -96 69 -96 35 0 39 3 39 25 0 18 -5 25
-20 25 -18 0 -20 7 -20 54 0 49 2 55 22 58 34 5 37 38 4 38 -22 0 -26 4 -26
30 0 27 -3 30 -30 30 -26 0 -31 -5 -36 -30z"/>
<path d="M1049 291 c-24 -25 -29 -37 -29 -81 0 -67 30 -100 90 -100 58 0 90
33 90 94 0 56 -15 91 -47 105 -40 18 -73 13 -104 -18z m86 -55 c9 -44 -2 -76
-25 -76 -20 0 -30 19 -30 55 0 63 45 79 55 21z"/>
<path d="M1378 290 c-28 -29 -30 -35 -26 -87 4 -43 10 -61 28 -75 39 -32 147
-18 134 17 -4 10 -20 15 -49 15 -29 0 -45 5 -49 15 -4 12 5 15 49 15 l55 0 0
40 c0 85 -83 119 -142 60z m86 -35 c4 -11 -2 -15 -24 -15 -22 0 -28 4 -24 15
4 8 14 15 24 15 10 0 20 -7 24 -15z"/>
<path d="M1903 305 c-49 -35 -53 -138 -6 -175 37 -29 93 -26 124 6 19 21 24
36 24 81 0 48 -4 58 -28 79 -32 28 -82 32 -114 9z m75 -93 c3 -50 2 -52 -22
-52 -24 0 -26 3 -26 48 0 53 6 64 30 60 11 -2 16 -18 18 -56z"/>
<path d="M2213 313 c-18 -7 -17 -125 1 -168 12 -28 20 -35 43 -35 16 0 34 5
41 12 9 9 18 9 38 -1 42 -19 49 -4 46 98 -3 76 -6 91 -21 96 -40 13 -51 -3
-51 -76 0 -62 -2 -69 -20 -69 -18 0 -20 7 -20 59 0 72 -19 100 -57 84z"/>
<path d="M2583 313 c-15 -5 -18 -43 -3 -43 5 0 10 -35 12 -77 l3 -78 33 -3 32
-3 0 83 c0 52 -5 90 -12 100 -15 18 -47 29 -65 21z"/>
<path d="M2733 305 c-27 -19 -48 -83 -40 -117 4 -14 16 -37 28 -51 16 -22 29
-27 63 -27 62 0 91 33 91 107 0 48 -4 58 -28 79 -33 28 -82 32 -114 9z m72
-90 c0 -43 -3 -50 -20 -50 -16 0 -21 8 -23 39 -4 49 3 68 25 64 14 -3 18 -14
18 -53z"/>
<path d="M2914 307 c-3 -8 -4 -54 -2 -103 l3 -89 33 -3 32 -3 0 71 c0 54 4 72
15 77 24 9 29 -2 32 -69 3 -70 11 -83 45 -75 22 6 23 9 17 84 -3 43 -9 86 -13
96 -11 23 -49 32 -75 17 -15 -7 -27 -8 -40 0 -26 14 -41 13 -47 -3z"/>
<path d="M3158 309 c-50 -29 -41 -91 17 -115 41 -17 50 -50 11 -40 -13 3 -31
9 -39 12 -20 7 -34 -35 -16 -47 8 -5 35 -9 62 -9 103 0 121 92 24 129 -40 15
-35 35 8 28 28 -5 37 -2 45 14 9 16 7 21 -15 29 -33 13 -75 12 -97 -1z"/>
</g>
</svg>
